name rise38.3101peak57.3503fall81.6963.mot
datacolumns 19
datarows 30
range 0.92166900000000 0.97000500000000
endheader
time	ground_force1_vx	ground_force1_vy	ground_force1_vz	ground_force1_px	ground_force1_py	ground_force1_pz	ground_force2_vx	ground_force2_vy	ground_force2_vz	ground_force2_px	ground_force2_py	ground_force2_pz	ground_torque1_x	ground_torque1_y	ground_torque1_z	ground_torque2_x	ground_torque2_y	ground_torque2_z	
0.92166900000000	59.17275500000000	700.46424500000001	41.96953500000000	0.32811000000000	0.00000000000000	0.10202700000000	-3.14925600000000	15.80031000000000	2.00666400000000	0.00000000000000	0.00000000000000	0.00000000000000	0.00000000000000	13.41631200000000	0.00000000000000	0.00000000000000	-0.34077800000000	0.00000000000000	
0.92333100000000	58.61329200000000	703.98595200000000	42.29752900000000	0.32691800000000	0.00000000000000	0.10209800000000	-2.14125600000000	10.83776500000000	1.47280900000000	0.00000000000000	0.00000000000000	0.00000000000000	0.00000000000000	13.59470200000000	0.00000000000000	0.00000000000000	-0.23291500000000	0.00000000000000	
0.92499700000000	58.05381200000000	707.47710700000005	42.63427500000000	0.32575800000000	0.00000000000000	0.10216700000000	-1.28942100000000	6.62757500000000	0.99503600000000	0.00000000000000	0.00000000000000	0.00000000000000	0.00000000000000	13.78027600000000	0.00000000000000	0.00000000000000	-0.14142400000000	0.00000000000000	
0.92666600000000	57.49488300000000	710.93494499999997	42.97945700000000	0.32462900000000	0.00000000000000	0.10223600000000	-0.59852500000000	3.19638000000000	0.58399400000000	0.00000000000000	0.00000000000000	0.00000000000000	0.00000000000000	13.97277700000000	0.00000000000000	0.00000000000000	-0.06693100000000	0.00000000000000	
0.92833700000000	56.93698200000000	714.35647600000004	43.33265100000000	0.32353100000000	0.00000000000000	0.10230500000000	0.00000000000000	0.00000000000000	0.00000000000000	0.00000000000000	0.00000000000000	0.00000000000000	0.00000000000000	14.17188400000000	0.00000000000000	0.00000000000000	0.00000000000000	0.00000000000000	
0.93000400000000	56.38050900000000	717.73850100000004	43.69333600000000	0.32246100000000	0.00000000000000	0.10237300000000	0.00000000000000	0.00000000000000	0.00000000000000	0.00000000000000	0.00000000000000	0.00000000000000	0.00000000000000	14.37721900000000	0.00000000000000	0.00000000000000	0.00000000000000	0.00000000000000	
0.93166800000000	55.82577800000000	721.07762800000000	44.06089700000000	0.32142000000000	0.00000000000000	0.10244000000000	0.00000000000000	0.00000000000000	0.00000000000000	0.00000000000000	0.00000000000000	0.00000000000000	0.00000000000000	14.58834900000000	0.00000000000000	0.00000000000000	0.00000000000000	0.00000000000000	
0.93333000000000	55.27302800000000	724.37028699999996	44.43462800000000	0.32040500000000	0.00000000000000	0.10250700000000	0.00000000000000	0.00000000000000	0.00000000000000	0.00000000000000	0.00000000000000	0.00000000000000	0.00000000000000	14.80479100000000	0.00000000000000	0.00000000000000	0.00000000000000	0.00000000000000	
0.93500000000000	54.72242200000000	727.61275200000000	44.81374300000000	0.31941500000000	0.00000000000000	0.10257300000000	0.00000000000000	0.00000000000000	0.00000000000000	0.00000000000000	0.00000000000000	0.00000000000000	0.00000000000000	15.02601300000000	0.00000000000000	0.00000000000000	0.00000000000000	0.00000000000000	
0.93666800000000	54.17405000000000	730.80115200000000	45.19738100000000	0.31844900000000	0.00000000000000	0.10263900000000	0.00000000000000	0.00000000000000	0.00000000000000	0.00000000000000	0.00000000000000	0.00000000000000	0.00000000000000	15.25144200000000	0.00000000000000	0.00000000000000	0.00000000000000	0.00000000000000	
0.93833300000000	53.62793500000000	733.93149800000003	45.58461100000000	0.31750500000000	0.00000000000000	0.10270400000000	0.00000000000000	0.00000000000000	0.00000000000000	0.00000000000000	0.00000000000000	0.00000000000000	0.00000000000000	15.48046500000000	0.00000000000000	0.00000000000000	0.00000000000000	0.00000000000000	
0.94000200000000	53.08403600000000	736.99969699999997	45.97444300000000	0.31658200000000	0.00000000000000	0.10276800000000	0.00000000000000	0.00000000000000	0.00000000000000	0.00000000000000	0.00000000000000	0.00000000000000	0.00000000000000	15.71243600000000	0.00000000000000	0.00000000000000	0.00000000000000	0.00000000000000	
0.94167000000000	52.54225200000000	740.00157300000001	46.36583100000000	0.31567700000000	0.00000000000000	0.10283100000000	0.00000000000000	0.00000000000000	0.00000000000000	0.00000000000000	0.00000000000000	0.00000000000000	0.00000000000000	15.94667700000000	0.00000000000000	0.00000000000000	0.00000000000000	0.00000000000000	
0.94333000000000	52.00242600000000	742.93288800000005	46.75768700000000	0.31478800000000	0.00000000000000	0.10289400000000	0.00000000000000	0.00000000000000	0.00000000000000	0.00000000000000	0.00000000000000	0.00000000000000	0.00000000000000	16.18248800000000	0.00000000000000	0.00000000000000	0.00000000000000	0.00000000000000	
0.94500200000000	51.46435100000000	745.78936299999998	47.14888300000000	0.31391400000000	0.00000000000000	0.10295600000000	0.00000000000000	0.00000000000000	0.00000000000000	0.00000000000000	0.00000000000000	0.00000000000000	0.00000000000000	16.41914600000000	0.00000000000000	0.00000000000000	0.00000000000000	0.00000000000000	
0.94667000000000	50.92777400000000	748.56669699999998	47.53826200000000	0.31305200000000	0.00000000000000	0.10301700000000	0.00000000000000	0.00000000000000	0.00000000000000	0.00000000000000	0.00000000000000	0.00000000000000	0.00000000000000	16.65591400000000	0.00000000000000	0.00000000000000	0.00000000000000	0.00000000000000	
0.94833000000000	50.39240100000000	751.26058699999999	47.92464600000000	0.31220100000000	0.00000000000000	0.10307700000000	0.00000000000000	0.00000000000000	0.00000000000000	0.00000000000000	0.00000000000000	0.00000000000000	0.00000000000000	16.89204300000000	0.00000000000000	0.00000000000000	0.00000000000000	0.00000000000000	
0.95000500000000	49.85790200000000	753.86675200000002	48.30684400000000	0.31135800000000	0.00000000000000	0.10313700000000	0.00000000000000	0.00000000000000	0.00000000000000	0.00000000000000	0.00000000000000	0.00000000000000	0.00000000000000	17.12678000000000	0.00000000000000	0.00000000000000	0.00000000000000	0.00000000000000	
0.95166600000000	49.32391700000000	756.38094899999999	48.68365900000000	0.31052100000000	0.00000000000000	0.10319600000000	0.00000000000000	0.00000000000000	0.00000000000000	0.00000000000000	0.00000000000000	0.00000000000000	0.00000000000000	17.35936700000000	0.00000000000000	0.00000000000000	0.00000000000000	0.00000000000000	
0.95333500000000	48.79006000000000	758.79899899999998	49.05389500000000	0.30968800000000	0.00000000000000	0.10325400000000	0.00000000000000	0.00000000000000	0.00000000000000	0.00000000000000	0.00000000000000	0.00000000000000	0.00000000000000	17.58905200000000	0.00000000000000	0.00000000000000	0.00000000000000	0.00000000000000	
0.95500100000000	48.25592500000000	761.11679800000002	49.41636800000000	0.30885800000000	0.00000000000000	0.10331100000000	0.00000000000000	0.00000000000000	0.00000000000000	0.00000000000000	0.00000000000000	0.00000000000000	0.00000000000000	17.81509100000000	0.00000000000000	0.00000000000000	0.00000000000000	0.00000000000000	
0.95666800000000	47.72108900000000	763.33034799999996	49.76991100000000	0.30802700000000	0.00000000000000	0.10336800000000	0.00000000000000	0.00000000000000	0.00000000000000	0.00000000000000	0.00000000000000	0.00000000000000	0.00000000000000	18.03675100000000	0.00000000000000	0.00000000000000	0.00000000000000	0.00000000000000	
0.95833600000000	47.18512100000000	765.43576599999994	50.11337900000000	0.30719500000000	0.00000000000000	0.10342400000000	0.00000000000000	0.00000000000000	0.00000000000000	0.00000000000000	0.00000000000000	0.00000000000000	0.00000000000000	18.25331500000000	0.00000000000000	0.00000000000000	0.00000000000000	0.00000000000000	
0.95999700000000	46.64758500000000	767.42930799999999	50.44566100000000	0.30635900000000	0.00000000000000	0.10347900000000	0.00000000000000	0.00000000000000	0.00000000000000	0.00000000000000	0.00000000000000	0.00000000000000	0.00000000000000	18.46408800000000	0.00000000000000	0.00000000000000	0.00000000000000	0.00000000000000	
0.96166400000000	46.10804100000000	769.30738699999995	50.76568100000000	0.30551700000000	0.00000000000000	0.10353300000000	0.00000000000000	0.00000000000000	0.00000000000000	0.00000000000000	0.00000000000000	0.00000000000000	0.00000000000000	18.66840000000000	0.00000000000000	0.00000000000000	0.00000000000000	0.00000000000000	
0.96333200000000	45.56605600000000	771.06658600000003	51.07240900000000	0.30466700000000	0.00000000000000	0.10358700000000	0.00000000000000	0.00000000000000	0.00000000000000	0.00000000000000	0.00000000000000	0.00000000000000	0.00000000000000	18.86560900000000	0.00000000000000	0.00000000000000	0.00000000000000	0.00000000000000	
0.96500200000000	45.02120600000000	772.70368199999996	51.36486100000000	0.30380800000000	0.00000000000000	0.10364000000000	0.00000000000000	0.00000000000000	0.00000000000000	0.00000000000000	0.00000000000000	0.00000000000000	0.00000000000000	19.05510400000000	0.00000000000000	0.00000000000000	0.00000000000000	0.00000000000000	
0.96666400000000	44.47307800000000	774.21565299999997	51.64211000000000	0.30293800000000	0.00000000000000	0.10369200000000	0.00000000000000	0.00000000000000	0.00000000000000	0.00000000000000	0.00000000000000	0.00000000000000	0.00000000000000	19.23630900000000	0.00000000000000	0.00000000000000	0.00000000000000	0.00000000000000	
0.96833400000000	43.92127800000000	775.59970099999998	51.90328600000000	0.30205500000000	0.00000000000000	0.10374400000000	0.00000000000000	0.00000000000000	0.00000000000000	0.00000000000000	0.00000000000000	0.00000000000000	0.00000000000000	19.40868900000000	0.00000000000000	0.00000000000000	0.00000000000000	0.00000000000000	
0.97000500000000	43.36543000000000	776.85326099999997	52.14758300000000	0.30115900000000	0.00000000000000	0.10379500000000	0.00000000000000	0.00000000000000	0.00000000000000	0.00000000000000	0.00000000000000	0.00000000000000	0.00000000000000	19.57174700000000	0.00000000000000	0.00000000000000	0.00000000000000	0.00000000000000	
